<svg preserveAspectRatio="xMidYMid meet" width="100%" height="100%" viewBox="0 0 26 26" fill="none" xmlns="http://www.w3.org/2000/svg"><defs><linearGradient id="dieBody" x1="4.1" y1="3.7" x2="22.5" y2="22.8" gradientUnits="userSpaceOnUse"><stop offset="0" stop-color="#FFF3B4"/><stop offset="0.24" stop-color="#F8D978"/><stop offset="0.48" stop-color="#D99A36"/><stop offset="0.75" stop-color="#9E5E20"/><stop offset="1" stop-color="#4A2710"/></linearGradient><radialGradient id="metalFlare" cx="0" cy="0" r="1" gradientUnits="userSpaceOnUse" gradientTransform="translate(7.9 6.1) rotate(38) scale(12.4 9.8)"><stop offset="0" stop-color="#FFFFFF" stop-opacity="0.86"/><stop offset="0.2" stop-color="#FFF4C7" stop-opacity="0.46"/><stop offset="0.58" stop-color="#F0BB4B" stop-opacity="0.08"/><stop offset="1" stop-color="#F0BB4B" stop-opacity="0"/></radialGradient><radialGradient id="rubyInner" cx="0" cy="0" r="1" gradientUnits="userSpaceOnUse" gradientTransform="translate(7.9 7.9) rotate(45) scale(2.04 1.76)"><stop offset="0" stop-color="#FFD17A" stop-opacity="0.82"/><stop offset="0.45" stop-color="#240706" stop-opacity="0.58"/><stop offset="1" stop-color="#42100D" stop-opacity="0"/></radialGradient><filter id="dieShadow" x="-36%" y="-36%" width="172%" height="186%" color-interpolation-filters="sRGB"><feDropShadow dx="0" dy="1.9" stdDeviation="1.1" flood-color="#050403" flood-opacity="0.3"/><feDropShadow dx="0" dy="0" stdDeviation="0.72" flood-color="#F4C45A" flood-opacity="0.18"/></filter><filter id="pipInset" x="-90%" y="-90%" width="280%" height="280%" color-interpolation-filters="sRGB"><feDropShadow dx="0" dy="0.35" stdDeviation="0.22" flood-color="#1B0705" flood-opacity="0.58"/></filter></defs><g filter="url(#dieShadow)" transform="rotate(3 13 13)"><rect x="2.85" y="2.85" width="20.3" height="20.3" rx="5.45" fill="#D9B86F" stroke="#FFF0A6" stroke-width="0.72"/><rect x="3.45" y="3.45" width="19.1" height="19.1" rx="4.95" fill="url(#dieBody)" stroke="#6D3B12" stroke-opacity="0.34" stroke-width="0.52"/><path d="M5.38 7.22C8.16 4.8 13.72 4.18 18.78 5.72C20.06 6.1 21.02 6.72 21.66 7.58V10.36C20.16 9.1 18.08 8.38 15.36 8.16C11.34 7.84 8.02 8.42 5.38 9.88V7.22Z" fill="url(#metalFlare)"/><path d="M5.02 16.12C8.72 17.7 13.18 18.08 18.38 17.2C19.86 16.96 20.98 16.56 21.76 16V19.4C20.54 20.34 18.96 20.98 17.02 21.32C12.2 22.1 8.2 21.52 5.02 19.56V16.12Z" fill="#1C1008" opacity="0.2"/><path d="M4.52 8.7C5.54 6.34 7.28 4.74 9.76 3.9C7.84 5.82 6.76 8.34 6.56 11.46C6.36 14.54 7.22 17.24 9.16 19.56C6.84 18.7 5.24 17.06 4.38 14.64C3.72 12.58 3.76 10.6 4.52 8.7Z" fill="#FFF9D7" opacity="0.26"/><rect x="4.12" y="4.12" width="17.76" height="17.76" rx="4.54" stroke="#FFE39A" stroke-opacity="0.28" stroke-width="0.64"/><g filter="url(#pipInset)"><circle cx="8.2" cy="7.75" r="1.8" fill="#0A0504"/><circle cx="8.2" cy="7.75" r="1.32" fill="#240706"/><circle cx="8.2" cy="7.75" r="1.32" fill="url(#rubyInner)"/><ellipse cx="8.54" cy="8.2" rx="0.8" ry="0.56" fill="#000000" opacity="0.3"/></g><g filter="url(#pipInset)"><circle cx="17.8" cy="7.75" r="1.8" fill="#0A0504"/><circle cx="17.8" cy="7.75" r="1.32" fill="#240706"/><circle cx="17.8" cy="7.75" r="1.32" fill="url(#rubyInner)"/><ellipse cx="18.14" cy="8.2" rx="0.8" ry="0.56" fill="#000000" opacity="0.3"/></g><g filter="url(#pipInset)"><circle cx="8.2" cy="13" r="1.8" fill="#0A0504"/><circle cx="8.2" cy="13" r="1.32" fill="#240706"/><circle cx="8.2" cy="13" r="1.32" fill="url(#rubyInner)"/><ellipse cx="8.54" cy="13.44" rx="0.8" ry="0.56" fill="#000000" opacity="0.3"/></g><g filter="url(#pipInset)"><circle cx="17.8" cy="13" r="1.8" fill="#0A0504"/><circle cx="17.8" cy="13" r="1.32" fill="#240706"/><circle cx="17.8" cy="13" r="1.32" fill="url(#rubyInner)"/><ellipse cx="18.14" cy="13.44" rx="0.8" ry="0.56" fill="#000000" opacity="0.3"/></g><g filter="url(#pipInset)"><circle cx="8.2" cy="18.25" r="1.8" fill="#0A0504"/><circle cx="8.2" cy="18.25" r="1.32" fill="#240706"/><circle cx="8.2" cy="18.25" r="1.32" fill="url(#rubyInner)"/><ellipse cx="8.54" cy="18.7" rx="0.8" ry="0.56" fill="#000000" opacity="0.3"/></g><g filter="url(#pipInset)"><circle cx="17.8" cy="18.25" r="1.8" fill="#0A0504"/><circle cx="17.8" cy="18.25" r="1.32" fill="#240706"/><circle cx="17.8" cy="18.25" r="1.32" fill="url(#rubyInner)"/><ellipse cx="18.14" cy="18.7" rx="0.8" ry="0.56" fill="#000000" opacity="0.3"/></g></g></svg>
