<svg preserveAspectRatio="xMidYMid meet" width="100%" height="100%" viewBox="0 0 26 26" fill="none" xmlns="http://www.w3.org/2000/svg">
  <defs>
    <linearGradient id="dieTopLight" x1="4.9" y1="4.6" x2="21.1" y2="21.4" gradientUnits="userSpaceOnUse">
      <stop offset="0" stop-color="#FFFFFF" stop-opacity="0.94"/>
      <stop offset="0.34" stop-color="#FFF6E3" stop-opacity="0.98"/>
      <stop offset="1" stop-color="#E6D9B8" stop-opacity="0.92"/>
    </linearGradient>
    <radialGradient id="bodyGloss" cx="0" cy="0" r="1" gradientUnits="userSpaceOnUse" gradientTransform="translate(9.4 7.2) rotate(37.8) scale(12.6 10.2)">
      <stop offset="0" stop-color="#FFFFFF" stop-opacity="0.84"/>
      <stop offset="0.36" stop-color="#FFFFFF" stop-opacity="0.3"/>
      <stop offset="1" stop-color="#FFFFFF" stop-opacity="0"/>
    </radialGradient>
    <radialGradient id="bodyDepth" cx="0" cy="0" r="1" gradientUnits="userSpaceOnUse" gradientTransform="translate(18.7 19.2) rotate(-128.4) scale(14.8 12.6)">
      <stop offset="0" stop-color="#B8C2D3" stop-opacity="0.18"/>
      <stop offset="1" stop-color="#7E8796" stop-opacity="0"/>
    </radialGradient>
    <radialGradient id="pipGloss" cx="0" cy="0" r="1" gradientUnits="userSpaceOnUse" gradientTransform="translate(12.38 11.94) rotate(134.6) scale(3.34 3.2)">
      <stop offset="0" stop-color="#FFFFFF" stop-opacity="0.22"/>
      <stop offset="0.48" stop-color="#FFFFFF" stop-opacity="0.08"/>
      <stop offset="1" stop-color="#000000" stop-opacity="0"/>
    </radialGradient>
    <filter id="dieShadow" x="-44%" y="-44%" width="188%" height="200%" color-interpolation-filters="sRGB">
      <feDropShadow dx="0" dy="1.9" stdDeviation="1.42" flood-color="#000000" flood-opacity="0.2"/>
      <feDropShadow dx="0" dy="0.5" stdDeviation="0.32" flood-color="#F2C86F" flood-opacity="0.1"/>
    </filter>
    <filter id="innerShadow" x="-20%" y="-20%" width="140%" height="140%" color-interpolation-filters="sRGB">
      <feOffset dx="0" dy="0.45"/>
      <feGaussianBlur stdDeviation="0.58"/>
      <feComposite in2="SourceAlpha" operator="arithmetic" k2="-1" k3="1"/>
      <feColorMatrix type="matrix" values="0 0 0 0 0.34 0 0 0 0 0.28 0 0 0 0 0.18 0 0 0 0.18 0"/>
      <feBlend in2="SourceGraphic" mode="multiply"/>
    </filter>
    <filter id="pipShadow-0" x="-120%" y="-120%" width="340%" height="340%" color-interpolation-filters="sRGB">
      <feDropShadow dx="0" dy="0.24" stdDeviation="0.24" flood-color="#4A151A" flood-opacity="0.24"/>
    </filter>
    <filter id="pipShadow-1" x="-120%" y="-120%" width="340%" height="340%" color-interpolation-filters="sRGB">
      <feDropShadow dx="0" dy="0.24" stdDeviation="0.24" flood-color="#132448" flood-opacity="0.24"/>
    </filter>
    <filter id="pipShadow-2" x="-120%" y="-120%" width="340%" height="340%" color-interpolation-filters="sRGB">
      <feDropShadow dx="0" dy="0.24" stdDeviation="0.24" flood-color="#4A151A" flood-opacity="0.24"/>
    </filter>
    <filter id="pipShadow-3" x="-120%" y="-120%" width="340%" height="340%" color-interpolation-filters="sRGB">
      <feDropShadow dx="0" dy="0.24" stdDeviation="0.24" flood-color="#132448" flood-opacity="0.24"/>
    </filter>
    <filter id="pipShadow-4" x="-120%" y="-120%" width="340%" height="340%" color-interpolation-filters="sRGB">
      <feDropShadow dx="0" dy="0.24" stdDeviation="0.24" flood-color="#4A151A" flood-opacity="0.24"/>
    </filter>
  </defs>
  <g filter="url(#dieShadow)" transform="rotate(4.8 13 13)">
    <rect x="3.2" y="3.2" width="19.6" height="19.6" rx="5.2" fill="#FFF6E3" stroke="#E1BF72" stroke-width="0.82"/>
    <rect x="3.42" y="3.42" width="19.16" height="19.16" rx="4.96" fill="url(#dieTopLight)"/>
    <path d="M6 6C8.42 4.74 12.04 4.3 16.48 4.88C18.96 5.2 20.62 5.92 21.64 7.1V10.24C20.62 9.12 18.96 8.38 16.48 8.08C12.04 7.54 8.42 7.96 6 9.18V6Z" fill="url(#bodyGloss)" opacity="0.74"/>
    <path d="M5.56 16.58C8.82 17.76 13.1 18.12 18.24 17.42C19.72 17.22 20.98 16.82 21.88 16.18V19.7C20.86 20.5 19.48 21.08 17.72 21.36C12.76 22.14 8.64 21.76 5.56 20.36V16.58Z" fill="url(#bodyDepth)" opacity="0.86"/>
    <path d="M4.9 8.28C5.92 6.28 7.6 4.86 9.88 4.14C7.84 5.8 6.66 8.28 6.42 11.44C6.2 14.56 7.1 17.5 9.08 20.26C6.86 19.1 5.38 17.24 4.68 14.84C4.02 12.56 4.1 10.4 4.9 8.28Z" fill="#FFFFFF" opacity="0.18"/>
    <rect x="3.58" y="3.58" width="18.84" height="18.84" rx="4.86" filter="url(#innerShadow)" fill="transparent"/>
    <g filter="url(#pipShadow-0)">
      <circle cx="8.2" cy="8.4" r="2.08" fill="#C92A2A"/>
      <ellipse cx="7.82" cy="7.84" rx="0.92" ry="0.72" fill="#F19A9E" opacity="0.9"/>
      <ellipse cx="8.42" cy="8.82" rx="1.46" ry="1.16" fill="#7E2026" opacity="0.24"/>
      <circle cx="8.2" cy="8.4" r="2.08" fill="url(#pipGloss)" opacity="0.34"/>
    </g>
    <g filter="url(#pipShadow-1)">
      <circle cx="17.8" cy="8.4" r="2.08" fill="#1F2E58"/>
      <ellipse cx="17.42" cy="7.84" rx="0.92" ry="0.72" fill="#91A8E8" opacity="0.9"/>
      <ellipse cx="18.02" cy="8.82" rx="1.46" ry="1.16" fill="#142146" opacity="0.24"/>
      <circle cx="17.8" cy="8.4" r="2.08" fill="url(#pipGloss)" opacity="0.34"/>
    </g>
    <g filter="url(#pipShadow-2)">
      <circle cx="13" cy="13" r="2.08" fill="#C92A2A"/>
      <ellipse cx="12.62" cy="12.44" rx="0.92" ry="0.72" fill="#F19A9E" opacity="0.9"/>
      <ellipse cx="13.22" cy="13.42" rx="1.46" ry="1.16" fill="#7E2026" opacity="0.24"/>
      <circle cx="13" cy="13" r="2.08" fill="url(#pipGloss)" opacity="0.34"/>
    </g>
    <g filter="url(#pipShadow-3)">
      <circle cx="8.2" cy="17.6" r="2.08" fill="#1F2E58"/>
      <ellipse cx="7.82" cy="17.04" rx="0.92" ry="0.72" fill="#91A8E8" opacity="0.9"/>
      <ellipse cx="8.42" cy="18.02" rx="1.46" ry="1.16" fill="#142146" opacity="0.24"/>
      <circle cx="8.2" cy="17.6" r="2.08" fill="url(#pipGloss)" opacity="0.34"/>
    </g>
    <g filter="url(#pipShadow-4)">
      <circle cx="17.8" cy="17.6" r="2.08" fill="#C92A2A"/>
      <ellipse cx="17.42" cy="17.04" rx="0.92" ry="0.72" fill="#F19A9E" opacity="0.9"/>
      <ellipse cx="18.02" cy="18.02" rx="1.46" ry="1.16" fill="#7E2026" opacity="0.24"/>
      <circle cx="17.8" cy="17.6" r="2.08" fill="url(#pipGloss)" opacity="0.34"/>
    </g>
  </g>
</svg>
