<svg preserveAspectRatio="none" width="100%" height="100%" overflow="visible" style="display: block;" viewBox="0 0 16 16" fill="none" xmlns="http://www.w3.org/2000/svg">
<g id="SVG">
<path id="Vector" d="M5.2 7C6.19411 7 7 6.19411 7 5.2C7 4.20589 6.19411 3.4 5.2 3.4C4.20589 3.4 3.4 4.20589 3.4 5.2C3.4 6.19411 4.20589 7 5.2 7Z" fill="var(--fill-0, #1A1A2E)"/>
<path id="Vector_2" d="M10.8 7C11.7941 7 12.6 6.19411 12.6 5.2C12.6 4.20589 11.7941 3.4 10.8 3.4C9.80589 3.4 9 4.20589 9 5.2C9 6.19411 9.80589 7 10.8 7Z" fill="var(--fill-0, #1A1A2E)"/>
<path id="Vector_3" d="M8 9.8C8.99411 9.8 9.8 8.99411 9.8 8C9.8 7.00589 8.99411 6.2 8 6.2C7.00589 6.2 6.2 7.00589 6.2 8C6.2 8.99411 7.00589 9.8 8 9.8Z" fill="var(--fill-0, #1A1A2E)"/>
<path id="Vector_4" d="M5.2 12.6C6.19411 12.6 7 11.7941 7 10.8C7 9.80589 6.19411 9 5.2 9C4.20589 9 3.4 9.80589 3.4 10.8C3.4 11.7941 4.20589 12.6 5.2 12.6Z" fill="var(--fill-0, #1A1A2E)"/>
<path id="Vector_5" d="M10.8 12.6C11.7941 12.6 12.6 11.7941 12.6 10.8C12.6 9.80589 11.7941 9 10.8 9C9.80589 9 9 9.80589 9 10.8C9 11.7941 9.80589 12.6 10.8 12.6Z" fill="var(--fill-0, #1A1A2E)"/>
</g>
</svg>
