<svg preserveAspectRatio="xMidYMid meet" width="100%" height="100%" viewBox="0 0 90 80" fill="none" xmlns="http://www.w3.org/2000/svg">
<ellipse cx="46" cy="67" rx="31" ry="9" fill="rgba(0,0,0,.24)"/><path id="frontFace" d="M12 29L31 43L65 39L67 58C64 67 36 74 23 64L12 29Z" fill="url(#front)" stroke="#d7d0bc" stroke-width="1.3"/><path id="rightFace" d="M65 39L78 27L76 49C75 58 69 63 67 58L65 39Z" fill="url(#right)" stroke="#d0c8b2" stroke-width="1.2"/><path id="topFace" d="M13 28C17 13 51 5 66 12C74 16 80 23 78 28C75 38 43 47 29 43C20 41 11 34 13 28Z" fill="url(#top)" stroke="#fff8df" stroke-width="1.4"/><ellipse class="top-pip" cx="32" cy="22" rx="4.35" ry="3.2" fill="url(#ruby)" stroke="#741222" stroke-width=".85"/><ellipse class="top-pip" cx="57" cy="18" rx="4.35" ry="3.2" fill="url(#ruby)" stroke="#741222" stroke-width=".85"/><ellipse class="top-pip" cx="34" cy="35" rx="4.35" ry="3.2" fill="url(#ruby)" stroke="#741222" stroke-width=".85"/><ellipse class="top-pip" cx="59" cy="31" rx="4.35" ry="3.2" fill="url(#ruby)" stroke="#741222" stroke-width=".85"/><ellipse class="side-pip" cx="30" cy="53" rx="3.1" ry="4.3" transform="rotate(-18 30 53)" fill="url(#onyx)"/><ellipse class="side-pip" cx="45" cy="58" rx="3.1" ry="4.3" transform="rotate(-18 45 58)" fill="url(#onyx)"/><ellipse class="side-pip" cx="70" cy="47" rx="2.8" ry="4.4" transform="rotate(16 70 47)" fill="url(#ruby)"/><path d="M22 21C31 13 53 9 65 14C52 13 33 17 22 25C19 27 17 30 16 33C15 29 17 24 22 21Z" fill="white" fill-opacity=".58"/><defs><linearGradient id="front" x1="24" y1="40" x2="55" y2="72"><stop stop-color="#fffef6"/><stop offset=".52" stop-color="#eee9d8"/><stop offset="1" stop-color="#bcb39a"/></linearGradient><linearGradient id="right" x1="66" y1="37" x2="78" y2="56"><stop stop-color="#f4f1e5"/><stop offset="1" stop-color="#a89f86"/></linearGradient><radialGradient id="top" cx="0" cy="0" r="1" gradientUnits="userSpaceOnUse" gradientTransform="translate(36 20) rotate(22) scale(45 24)"><stop stop-color="#ffffff"/><stop offset=".65" stop-color="#fbfaf0"/><stop offset="1" stop-color="#d8d1bc"/></radialGradient><radialGradient id="onyx" cx="0" cy="0" r="1" gradientUnits="userSpaceOnUse" gradientTransform="translate(30 51) scale(5 6)"><stop stop-color="#575858"/><stop offset=".42" stop-color="#191b1d"/><stop offset="1" stop-color="#030303"/></radialGradient><radialGradient id="ruby" cx="0" cy="0" r="1" gradientUnits="userSpaceOnUse" gradientTransform="translate(32 20) scale(7 5)"><stop stop-color="#ff9a82"/><stop offset=".55" stop-color="#d72c37"/><stop offset="1" stop-color="#7a0b1c"/></radialGradient></defs></svg>
