<svg preserveAspectRatio="none" width="100%" height="100%" overflow="visible" style="display: block;" viewBox="0 0 25.9966 25.9966" fill="none" xmlns="http://www.w3.org/2000/svg"><g id="DiceFaceMedium"><path id="Vector" d="M19.9974 1.99974H5.99922C3.79037 1.99974 1.99974 3.79037 1.99974 5.99922V19.9974C1.99974 22.2063 3.79037 23.9969 5.99922 23.9969H19.9974C22.2063 23.9969 23.9969 22.2063 23.9969 19.9974V5.99922C23.9969 3.79037 22.2063 1.99974 19.9974 1.99974Z" fill="var(--fill-0, #F5F3EE)" stroke="var(--stroke-0, #D0CDC8)" stroke-width="0.99987"/><path id="Vector_2" d="M7.99929 10.4993C9.38 10.4993 10.4993 9.38 10.4993 7.99929C10.4993 6.61857 9.38 5.49929 7.99929 5.49929C6.61857 5.49929 5.49929 6.61857 5.49929 7.99929C5.49929 9.38 6.61857 10.4993 7.99929 10.4993Z" fill="var(--fill-0, #1A1A2E)"/><path id="Vector_3" d="M17.998 10.4993C19.3787 10.4993 20.498 9.38 20.498 7.99929C20.498 6.61857 19.3787 5.49929 17.998 5.49929C16.6173 5.49929 15.498 6.61857 15.498 7.99929C15.498 9.38 16.6173 10.4993 17.998 10.4993Z" fill="var(--fill-0, #1A1A2E)"/><path id="Vector_4" d="M7.99929 20.498C9.38 20.498 10.4993 19.3787 10.4993 17.998C10.4993 16.6173 9.38 15.498 7.99929 15.498C6.61857 15.498 5.49929 16.6173 5.49929 17.998C5.49929 19.3787 6.61857 20.498 7.99929 20.498Z" fill="var(--fill-0, #1A1A2E)"/><path id="Vector_5" d="M17.998 20.498C19.3787 20.498 20.498 19.3787 20.498 17.998C20.498 16.6173 19.3787 15.498 17.998 15.498C16.6173 15.498 15.498 16.6173 15.498 17.998C15.498 19.3787 16.6173 20.498 17.998 20.498Z" fill="var(--fill-0, #1A1A2E)"/></g></svg>
